<mxfile host="app.diagrams.net" agent="Mozilla/5.0 (Windows NT 10.0; Win64; x64) AppleWebKit/537.36 (KHTML, like Gecko) Chrome/131.0.0.0 Safari/537.36 Edg/131.0.0.0" version="25.0.3">
  <diagram id="C5RBs43oDa-KdzZeNtuy" name="Page-1">
    <mxGraphModel dx="1699" dy="477" grid="1" gridSize="10" guides="1" tooltips="1" connect="1" arrows="1" fold="1" page="1" pageScale="1" pageWidth="827" pageHeight="1169" math="0" shadow="0">
      <root>
        <mxCell id="WIyWlLk6GJQsqaUBKTNV-0" />
        <mxCell id="WIyWlLk6GJQsqaUBKTNV-1" parent="WIyWlLk6GJQsqaUBKTNV-0" />
        <mxCell id="mvioNwK95yMqdUQ73LqQ-36" value="" style="swimlane;fontFamily=Sarabun;fontSource=https%3A%2F%2Ffonts.googleapis.com%2Fcss%3Ffamily%3DSarabun;" parent="WIyWlLk6GJQsqaUBKTNV-1" vertex="1">
          <mxGeometry x="-710" y="30" width="660" height="3830" as="geometry" />
        </mxCell>
        <mxCell id="mvioNwK95yMqdUQ73LqQ-35" value="&lt;font data-font-src=&quot;https://fonts.googleapis.com/css?family=Sarabun&quot; face=&quot;Sarabun&quot;&gt;Start&lt;/font&gt;" style="ellipse;whiteSpace=wrap;html=1;" parent="mvioNwK95yMqdUQ73LqQ-36" vertex="1">
          <mxGeometry x="255" y="40" width="130" height="30" as="geometry" />
        </mxCell>
        <mxCell id="QNhVIbcrn-Icenjs99R--4" style="edgeStyle=orthogonalEdgeStyle;rounded=0;orthogonalLoop=1;jettySize=auto;html=1;entryX=0.473;entryY=0.019;entryDx=0;entryDy=0;entryPerimeter=0;" parent="mvioNwK95yMqdUQ73LqQ-36" source="mvioNwK95yMqdUQ73LqQ-35" edge="1">
          <mxGeometry relative="1" as="geometry">
            <mxPoint x="320.3299999999999" y="111.71000000000004" as="targetPoint" />
          </mxGeometry>
        </mxCell>
        <mxCell id="RHvArnHLX5BHyyiqYKBb-2" style="edgeStyle=orthogonalEdgeStyle;rounded=0;orthogonalLoop=1;jettySize=auto;html=1;" parent="mvioNwK95yMqdUQ73LqQ-36" source="RHvArnHLX5BHyyiqYKBb-0" edge="1">
          <mxGeometry relative="1" as="geometry">
            <mxPoint x="320" y="220" as="targetPoint" />
          </mxGeometry>
        </mxCell>
        <mxCell id="RHvArnHLX5BHyyiqYKBb-0" value="Display &quot;Enter element of Array1 :&quot;" style="shape=parallelogram;perimeter=parallelogramPerimeter;whiteSpace=wrap;html=1;fixedSize=1;" parent="mvioNwK95yMqdUQ73LqQ-36" vertex="1">
          <mxGeometry x="201.25" y="110" width="237.5" height="60" as="geometry" />
        </mxCell>
        <mxCell id="RHvArnHLX5BHyyiqYKBb-4" style="edgeStyle=orthogonalEdgeStyle;rounded=0;orthogonalLoop=1;jettySize=auto;html=1;" parent="mvioNwK95yMqdUQ73LqQ-36" source="RHvArnHLX5BHyyiqYKBb-1" edge="1">
          <mxGeometry relative="1" as="geometry">
            <mxPoint x="320" y="340" as="targetPoint" />
          </mxGeometry>
        </mxCell>
        <mxCell id="RHvArnHLX5BHyyiqYKBb-1" value="Read array1 size" style="shape=parallelogram;perimeter=parallelogramPerimeter;whiteSpace=wrap;html=1;fixedSize=1;" parent="mvioNwK95yMqdUQ73LqQ-36" vertex="1">
          <mxGeometry x="260" y="220" width="120" height="60" as="geometry" />
        </mxCell>
        <mxCell id="RHvArnHLX5BHyyiqYKBb-6" style="edgeStyle=orthogonalEdgeStyle;rounded=0;orthogonalLoop=1;jettySize=auto;html=1;" parent="mvioNwK95yMqdUQ73LqQ-36" source="RHvArnHLX5BHyyiqYKBb-3" edge="1">
          <mxGeometry relative="1" as="geometry">
            <mxPoint x="321" y="470" as="targetPoint" />
          </mxGeometry>
        </mxCell>
        <mxCell id="RHvArnHLX5BHyyiqYKBb-3" value="i = 0" style="rounded=0;whiteSpace=wrap;html=1;" parent="mvioNwK95yMqdUQ73LqQ-36" vertex="1">
          <mxGeometry x="261" y="340" width="120" height="60" as="geometry" />
        </mxCell>
        <mxCell id="RHvArnHLX5BHyyiqYKBb-7" style="edgeStyle=orthogonalEdgeStyle;rounded=0;orthogonalLoop=1;jettySize=auto;html=1;" parent="mvioNwK95yMqdUQ73LqQ-36" source="RHvArnHLX5BHyyiqYKBb-5" edge="1">
          <mxGeometry relative="1" as="geometry">
            <mxPoint x="321" y="670" as="targetPoint" />
          </mxGeometry>
        </mxCell>
        <mxCell id="RHvArnHLX5BHyyiqYKBb-13" style="edgeStyle=orthogonalEdgeStyle;rounded=0;orthogonalLoop=1;jettySize=auto;html=1;entryX=0.5;entryY=0;entryDx=0;entryDy=0;" parent="mvioNwK95yMqdUQ73LqQ-36" source="RHvArnHLX5BHyyiqYKBb-5" target="RHvArnHLX5BHyyiqYKBb-15" edge="1">
          <mxGeometry relative="1" as="geometry">
            <mxPoint x="320.9999999999998" y="910" as="targetPoint" />
            <Array as="points">
              <mxPoint x="490" y="540" />
              <mxPoint x="490" y="910" />
              <mxPoint x="311" y="910" />
            </Array>
          </mxGeometry>
        </mxCell>
        <mxCell id="RHvArnHLX5BHyyiqYKBb-5" value="i &amp;lt; array1 size?" style="rhombus;whiteSpace=wrap;html=1;" parent="mvioNwK95yMqdUQ73LqQ-36" vertex="1">
          <mxGeometry x="251" y="470" width="140" height="140" as="geometry" />
        </mxCell>
        <mxCell id="RHvArnHLX5BHyyiqYKBb-9" value="Display &quot;--| Array1&quot;&amp;nbsp; + i" style="shape=parallelogram;perimeter=parallelogramPerimeter;whiteSpace=wrap;html=1;fixedSize=1;" parent="mvioNwK95yMqdUQ73LqQ-36" vertex="1">
          <mxGeometry x="235.5" y="670" width="169" height="60" as="geometry" />
        </mxCell>
        <mxCell id="RHvArnHLX5BHyyiqYKBb-10" value="Read&amp;nbsp; i store in array1[ i ] position&amp;nbsp;" style="shape=parallelogram;perimeter=parallelogramPerimeter;whiteSpace=wrap;html=1;fixedSize=1;" parent="mvioNwK95yMqdUQ73LqQ-36" vertex="1">
          <mxGeometry x="230" y="750" width="169" height="60" as="geometry" />
        </mxCell>
        <mxCell id="RHvArnHLX5BHyyiqYKBb-11" value="Yes" style="text;html=1;align=center;verticalAlign=middle;resizable=0;points=[];autosize=1;strokeColor=none;fillColor=none;" parent="mvioNwK95yMqdUQ73LqQ-36" vertex="1">
          <mxGeometry x="251" y="610" width="40" height="30" as="geometry" />
        </mxCell>
        <mxCell id="RHvArnHLX5BHyyiqYKBb-15" value="Display &quot;Enter element of Array2: &quot;" style="shape=parallelogram;perimeter=parallelogramPerimeter;whiteSpace=wrap;html=1;fixedSize=1;" parent="mvioNwK95yMqdUQ73LqQ-36" vertex="1">
          <mxGeometry x="201.25" y="1000" width="219" height="60" as="geometry" />
        </mxCell>
        <mxCell id="RHvArnHLX5BHyyiqYKBb-17" style="edgeStyle=orthogonalEdgeStyle;rounded=0;orthogonalLoop=1;jettySize=auto;html=1;" parent="mvioNwK95yMqdUQ73LqQ-36" source="RHvArnHLX5BHyyiqYKBb-18" edge="1">
          <mxGeometry relative="1" as="geometry">
            <mxPoint x="304.38" y="1380" as="targetPoint" />
          </mxGeometry>
        </mxCell>
        <mxCell id="RHvArnHLX5BHyyiqYKBb-18" value="Read array2 size" style="shape=parallelogram;perimeter=parallelogramPerimeter;whiteSpace=wrap;html=1;fixedSize=1;" parent="mvioNwK95yMqdUQ73LqQ-36" vertex="1">
          <mxGeometry x="244.38" y="1260" width="120" height="60" as="geometry" />
        </mxCell>
        <mxCell id="RHvArnHLX5BHyyiqYKBb-19" style="edgeStyle=orthogonalEdgeStyle;rounded=0;orthogonalLoop=1;jettySize=auto;html=1;" parent="mvioNwK95yMqdUQ73LqQ-36" source="RHvArnHLX5BHyyiqYKBb-20" edge="1">
          <mxGeometry relative="1" as="geometry">
            <mxPoint x="305.38" y="1510" as="targetPoint" />
          </mxGeometry>
        </mxCell>
        <mxCell id="RHvArnHLX5BHyyiqYKBb-20" value="i = 0" style="rounded=0;whiteSpace=wrap;html=1;" parent="mvioNwK95yMqdUQ73LqQ-36" vertex="1">
          <mxGeometry x="245.38" y="1380" width="120" height="60" as="geometry" />
        </mxCell>
        <mxCell id="RHvArnHLX5BHyyiqYKBb-21" style="edgeStyle=orthogonalEdgeStyle;rounded=0;orthogonalLoop=1;jettySize=auto;html=1;" parent="mvioNwK95yMqdUQ73LqQ-36" source="RHvArnHLX5BHyyiqYKBb-23" edge="1">
          <mxGeometry relative="1" as="geometry">
            <mxPoint x="305.38" y="1710" as="targetPoint" />
          </mxGeometry>
        </mxCell>
        <mxCell id="RHvArnHLX5BHyyiqYKBb-22" style="edgeStyle=orthogonalEdgeStyle;rounded=0;orthogonalLoop=1;jettySize=auto;html=1;entryX=0.5;entryY=0;entryDx=0;entryDy=0;" parent="mvioNwK95yMqdUQ73LqQ-36" source="RHvArnHLX5BHyyiqYKBb-23" target="RHvArnHLX5BHyyiqYKBb-27" edge="1">
          <mxGeometry relative="1" as="geometry">
            <mxPoint x="305.37999999999977" y="1950" as="targetPoint" />
            <Array as="points">
              <mxPoint x="474.38" y="1580" />
              <mxPoint x="474.38" y="1950" />
              <mxPoint x="295.38" y="1950" />
            </Array>
          </mxGeometry>
        </mxCell>
        <mxCell id="RHvArnHLX5BHyyiqYKBb-23" value="i &amp;lt; array2 size?" style="rhombus;whiteSpace=wrap;html=1;" parent="mvioNwK95yMqdUQ73LqQ-36" vertex="1">
          <mxGeometry x="235.38" y="1510" width="140" height="140" as="geometry" />
        </mxCell>
        <mxCell id="RHvArnHLX5BHyyiqYKBb-24" value="Display &quot;--| Array2&quot;&amp;nbsp; + i" style="shape=parallelogram;perimeter=parallelogramPerimeter;whiteSpace=wrap;html=1;fixedSize=1;" parent="mvioNwK95yMqdUQ73LqQ-36" vertex="1">
          <mxGeometry x="219.88" y="1710" width="169" height="60" as="geometry" />
        </mxCell>
        <mxCell id="RHvArnHLX5BHyyiqYKBb-38" style="edgeStyle=orthogonalEdgeStyle;rounded=0;orthogonalLoop=1;jettySize=auto;html=1;" parent="mvioNwK95yMqdUQ73LqQ-36" source="RHvArnHLX5BHyyiqYKBb-25" edge="1">
          <mxGeometry relative="1" as="geometry">
            <mxPoint x="110" y="1690" as="targetPoint" />
          </mxGeometry>
        </mxCell>
        <mxCell id="RHvArnHLX5BHyyiqYKBb-25" value="Read&amp;nbsp; i store in array2[ i ] position&amp;nbsp;" style="shape=parallelogram;perimeter=parallelogramPerimeter;whiteSpace=wrap;html=1;fixedSize=1;" parent="mvioNwK95yMqdUQ73LqQ-36" vertex="1">
          <mxGeometry x="210.63" y="1810" width="169" height="60" as="geometry" />
        </mxCell>
        <mxCell id="RHvArnHLX5BHyyiqYKBb-26" value="Yes" style="text;html=1;align=center;verticalAlign=middle;resizable=0;points=[];autosize=1;strokeColor=none;fillColor=none;" parent="mvioNwK95yMqdUQ73LqQ-36" vertex="1">
          <mxGeometry x="235.38" y="1650" width="40" height="30" as="geometry" />
        </mxCell>
        <mxCell id="RHvArnHLX5BHyyiqYKBb-30" style="edgeStyle=orthogonalEdgeStyle;rounded=0;orthogonalLoop=1;jettySize=auto;html=1;" parent="mvioNwK95yMqdUQ73LqQ-36" source="RHvArnHLX5BHyyiqYKBb-27" edge="1">
          <mxGeometry relative="1" as="geometry">
            <mxPoint x="295.1299999999999" y="2180" as="targetPoint" />
          </mxGeometry>
        </mxCell>
        <mxCell id="RHvArnHLX5BHyyiqYKBb-27" value="Display &quot;Enter element of Array2: &quot;" style="shape=parallelogram;perimeter=parallelogramPerimeter;whiteSpace=wrap;html=1;fixedSize=1;" parent="mvioNwK95yMqdUQ73LqQ-36" vertex="1">
          <mxGeometry x="185.63" y="2040" width="219" height="60" as="geometry" />
        </mxCell>
        <mxCell id="RHvArnHLX5BHyyiqYKBb-28" value="No" style="text;html=1;align=center;verticalAlign=middle;resizable=0;points=[];autosize=1;strokeColor=none;fillColor=none;" parent="mvioNwK95yMqdUQ73LqQ-36" vertex="1">
          <mxGeometry x="374.38" y="1518" width="40" height="30" as="geometry" />
        </mxCell>
        <mxCell id="RHvArnHLX5BHyyiqYKBb-29" style="edgeStyle=orthogonalEdgeStyle;rounded=0;orthogonalLoop=1;jettySize=auto;html=1;entryX=0.556;entryY=0.06;entryDx=0;entryDy=0;entryPerimeter=0;" parent="mvioNwK95yMqdUQ73LqQ-36" source="RHvArnHLX5BHyyiqYKBb-15" target="RHvArnHLX5BHyyiqYKBb-18" edge="1">
          <mxGeometry relative="1" as="geometry" />
        </mxCell>
        <mxCell id="RHvArnHLX5BHyyiqYKBb-33" style="edgeStyle=orthogonalEdgeStyle;rounded=0;orthogonalLoop=1;jettySize=auto;html=1;" parent="mvioNwK95yMqdUQ73LqQ-36" source="RHvArnHLX5BHyyiqYKBb-31" edge="1">
          <mxGeometry relative="1" as="geometry">
            <mxPoint x="297" y="2300" as="targetPoint" />
          </mxGeometry>
        </mxCell>
        <mxCell id="RHvArnHLX5BHyyiqYKBb-31" value="i = 0" style="rounded=0;whiteSpace=wrap;html=1;" parent="mvioNwK95yMqdUQ73LqQ-36" vertex="1">
          <mxGeometry x="237" y="2180" width="120" height="60" as="geometry" />
        </mxCell>
        <mxCell id="RHvArnHLX5BHyyiqYKBb-36" style="edgeStyle=orthogonalEdgeStyle;rounded=0;orthogonalLoop=1;jettySize=auto;html=1;" parent="mvioNwK95yMqdUQ73LqQ-36" source="RHvArnHLX5BHyyiqYKBb-32" edge="1">
          <mxGeometry relative="1" as="geometry">
            <mxPoint x="297.0000000000002" y="2520" as="targetPoint" />
          </mxGeometry>
        </mxCell>
        <mxCell id="RHvArnHLX5BHyyiqYKBb-56" style="edgeStyle=orthogonalEdgeStyle;rounded=0;orthogonalLoop=1;jettySize=auto;html=1;entryX=0.5;entryY=0;entryDx=0;entryDy=0;" parent="mvioNwK95yMqdUQ73LqQ-36" source="RHvArnHLX5BHyyiqYKBb-32" target="RHvArnHLX5BHyyiqYKBb-47" edge="1">
          <mxGeometry relative="1" as="geometry">
            <Array as="points">
              <mxPoint x="480" y="2365" />
              <mxPoint x="480" y="2740" />
              <mxPoint x="294" y="2740" />
            </Array>
          </mxGeometry>
        </mxCell>
        <mxCell id="RHvArnHLX5BHyyiqYKBb-32" value="i &amp;lt; array1 size?" style="rhombus;whiteSpace=wrap;html=1;" parent="mvioNwK95yMqdUQ73LqQ-36" vertex="1">
          <mxGeometry x="234" y="2300" width="126" height="130" as="geometry" />
        </mxCell>
        <mxCell id="RHvArnHLX5BHyyiqYKBb-35" value="No" style="text;html=1;align=center;verticalAlign=middle;resizable=0;points=[];autosize=1;strokeColor=none;fillColor=none;" parent="mvioNwK95yMqdUQ73LqQ-36" vertex="1">
          <mxGeometry x="383.38" y="2330" width="40" height="30" as="geometry" />
        </mxCell>
        <mxCell id="RHvArnHLX5BHyyiqYKBb-34" value="Yes" style="text;html=1;align=center;verticalAlign=middle;resizable=0;points=[];autosize=1;strokeColor=none;fillColor=none;" parent="mvioNwK95yMqdUQ73LqQ-36" vertex="1">
          <mxGeometry x="237" y="2420" width="40" height="30" as="geometry" />
        </mxCell>
        <mxCell id="RHvArnHLX5BHyyiqYKBb-37" style="edgeStyle=orthogonalEdgeStyle;rounded=0;orthogonalLoop=1;jettySize=auto;html=1;entryX=0.556;entryY=-0.006;entryDx=0;entryDy=0;entryPerimeter=0;" parent="mvioNwK95yMqdUQ73LqQ-36" source="RHvArnHLX5BHyyiqYKBb-24" target="RHvArnHLX5BHyyiqYKBb-25" edge="1">
          <mxGeometry relative="1" as="geometry" />
        </mxCell>
        <mxCell id="RHvArnHLX5BHyyiqYKBb-40" style="edgeStyle=orthogonalEdgeStyle;rounded=0;orthogonalLoop=1;jettySize=auto;html=1;" parent="mvioNwK95yMqdUQ73LqQ-36" source="RHvArnHLX5BHyyiqYKBb-39" edge="1">
          <mxGeometry relative="1" as="geometry">
            <mxPoint x="300" y="1480" as="targetPoint" />
            <Array as="points">
              <mxPoint x="114" y="1480" />
            </Array>
          </mxGeometry>
        </mxCell>
        <mxCell id="RHvArnHLX5BHyyiqYKBb-39" value="i++" style="rounded=0;whiteSpace=wrap;html=1;" parent="mvioNwK95yMqdUQ73LqQ-36" vertex="1">
          <mxGeometry x="54.38" y="1630" width="120" height="60" as="geometry" />
        </mxCell>
        <mxCell id="RHvArnHLX5BHyyiqYKBb-44" style="edgeStyle=orthogonalEdgeStyle;rounded=0;orthogonalLoop=1;jettySize=auto;html=1;entryX=0.5;entryY=1;entryDx=0;entryDy=0;" parent="mvioNwK95yMqdUQ73LqQ-36" source="RHvArnHLX5BHyyiqYKBb-42" target="RHvArnHLX5BHyyiqYKBb-43" edge="1">
          <mxGeometry relative="1" as="geometry" />
        </mxCell>
        <mxCell id="RHvArnHLX5BHyyiqYKBb-42" value="store array1[ i ] to array3[ i ]" style="rounded=0;whiteSpace=wrap;html=1;" parent="mvioNwK95yMqdUQ73LqQ-36" vertex="1">
          <mxGeometry x="237" y="2520" width="120" height="60" as="geometry" />
        </mxCell>
        <mxCell id="RHvArnHLX5BHyyiqYKBb-45" style="edgeStyle=orthogonalEdgeStyle;rounded=0;orthogonalLoop=1;jettySize=auto;html=1;" parent="mvioNwK95yMqdUQ73LqQ-36" source="RHvArnHLX5BHyyiqYKBb-43" edge="1">
          <mxGeometry relative="1" as="geometry">
            <mxPoint x="300" y="2270" as="targetPoint" />
            <Array as="points">
              <mxPoint x="114" y="2270" />
            </Array>
          </mxGeometry>
        </mxCell>
        <mxCell id="RHvArnHLX5BHyyiqYKBb-43" value="i++" style="rounded=0;whiteSpace=wrap;html=1;" parent="mvioNwK95yMqdUQ73LqQ-36" vertex="1">
          <mxGeometry x="54" y="2450" width="120" height="60" as="geometry" />
        </mxCell>
        <mxCell id="RHvArnHLX5BHyyiqYKBb-46" style="edgeStyle=orthogonalEdgeStyle;rounded=0;orthogonalLoop=1;jettySize=auto;html=1;" parent="mvioNwK95yMqdUQ73LqQ-36" source="RHvArnHLX5BHyyiqYKBb-47" edge="1">
          <mxGeometry relative="1" as="geometry">
            <mxPoint x="293.87" y="2920" as="targetPoint" />
          </mxGeometry>
        </mxCell>
        <mxCell id="RHvArnHLX5BHyyiqYKBb-47" value="i = 0" style="rounded=0;whiteSpace=wrap;html=1;" parent="mvioNwK95yMqdUQ73LqQ-36" vertex="1">
          <mxGeometry x="233.87" y="2800" width="120" height="60" as="geometry" />
        </mxCell>
        <mxCell id="RHvArnHLX5BHyyiqYKBb-48" style="edgeStyle=orthogonalEdgeStyle;rounded=0;orthogonalLoop=1;jettySize=auto;html=1;" parent="mvioNwK95yMqdUQ73LqQ-36" source="RHvArnHLX5BHyyiqYKBb-49" edge="1">
          <mxGeometry relative="1" as="geometry">
            <mxPoint x="293.87000000000023" y="3140" as="targetPoint" />
          </mxGeometry>
        </mxCell>
        <mxCell id="RHvArnHLX5BHyyiqYKBb-58" style="edgeStyle=orthogonalEdgeStyle;rounded=0;orthogonalLoop=1;jettySize=auto;html=1;" parent="mvioNwK95yMqdUQ73LqQ-36" source="RHvArnHLX5BHyyiqYKBb-49" edge="1">
          <mxGeometry relative="1" as="geometry">
            <mxPoint x="293.8699999999999" y="3440" as="targetPoint" />
            <Array as="points">
              <mxPoint x="470" y="2985" />
              <mxPoint x="470" y="3245" />
              <mxPoint x="294" y="3245" />
            </Array>
          </mxGeometry>
        </mxCell>
        <mxCell id="RHvArnHLX5BHyyiqYKBb-49" value="i &amp;lt; array2 size?" style="rhombus;whiteSpace=wrap;html=1;" parent="mvioNwK95yMqdUQ73LqQ-36" vertex="1">
          <mxGeometry x="230.87" y="2920" width="126" height="130" as="geometry" />
        </mxCell>
        <mxCell id="RHvArnHLX5BHyyiqYKBb-50" value="No" style="text;html=1;align=center;verticalAlign=middle;resizable=0;points=[];autosize=1;strokeColor=none;fillColor=none;" parent="mvioNwK95yMqdUQ73LqQ-36" vertex="1">
          <mxGeometry x="380.25" y="2950" width="40" height="30" as="geometry" />
        </mxCell>
        <mxCell id="RHvArnHLX5BHyyiqYKBb-51" value="Yes" style="text;html=1;align=center;verticalAlign=middle;resizable=0;points=[];autosize=1;strokeColor=none;fillColor=none;" parent="mvioNwK95yMqdUQ73LqQ-36" vertex="1">
          <mxGeometry x="171.25" y="3050" width="40" height="30" as="geometry" />
        </mxCell>
        <mxCell id="RHvArnHLX5BHyyiqYKBb-52" style="edgeStyle=orthogonalEdgeStyle;rounded=0;orthogonalLoop=1;jettySize=auto;html=1;entryX=0.5;entryY=1;entryDx=0;entryDy=0;" parent="mvioNwK95yMqdUQ73LqQ-36" source="RHvArnHLX5BHyyiqYKBb-53" target="RHvArnHLX5BHyyiqYKBb-55" edge="1">
          <mxGeometry relative="1" as="geometry" />
        </mxCell>
        <mxCell id="RHvArnHLX5BHyyiqYKBb-53" value="store array2[ i ] to array3 start from last position of array3" style="rounded=0;whiteSpace=wrap;html=1;" parent="mvioNwK95yMqdUQ73LqQ-36" vertex="1">
          <mxGeometry x="233.87" y="3140" width="120" height="60" as="geometry" />
        </mxCell>
        <mxCell id="RHvArnHLX5BHyyiqYKBb-54" style="edgeStyle=orthogonalEdgeStyle;rounded=0;orthogonalLoop=1;jettySize=auto;html=1;" parent="mvioNwK95yMqdUQ73LqQ-36" source="RHvArnHLX5BHyyiqYKBb-55" edge="1">
          <mxGeometry relative="1" as="geometry">
            <mxPoint x="296.87" y="2890" as="targetPoint" />
            <Array as="points">
              <mxPoint x="110.87" y="2890" />
            </Array>
          </mxGeometry>
        </mxCell>
        <mxCell id="RHvArnHLX5BHyyiqYKBb-55" value="i++" style="rounded=0;whiteSpace=wrap;html=1;" parent="mvioNwK95yMqdUQ73LqQ-36" vertex="1">
          <mxGeometry x="50.870000000000005" y="3070" width="120" height="60" as="geometry" />
        </mxCell>
        <mxCell id="RHvArnHLX5BHyyiqYKBb-60" style="edgeStyle=orthogonalEdgeStyle;rounded=0;orthogonalLoop=1;jettySize=auto;html=1;" parent="mvioNwK95yMqdUQ73LqQ-36" source="RHvArnHLX5BHyyiqYKBb-59" edge="1">
          <mxGeometry relative="1" as="geometry">
            <mxPoint x="297" y="3580" as="targetPoint" />
          </mxGeometry>
        </mxCell>
        <mxCell id="RHvArnHLX5BHyyiqYKBb-59" value="Sort array using Selection sort" style="rounded=0;whiteSpace=wrap;html=1;" parent="mvioNwK95yMqdUQ73LqQ-36" vertex="1">
          <mxGeometry x="237" y="3440" width="120" height="60" as="geometry" />
        </mxCell>
        <mxCell id="RHvArnHLX5BHyyiqYKBb-63" style="edgeStyle=orthogonalEdgeStyle;rounded=0;orthogonalLoop=1;jettySize=auto;html=1;" parent="mvioNwK95yMqdUQ73LqQ-36" source="RHvArnHLX5BHyyiqYKBb-62" edge="1">
          <mxGeometry relative="1" as="geometry">
            <mxPoint x="297" y="3690" as="targetPoint" />
          </mxGeometry>
        </mxCell>
        <mxCell id="RHvArnHLX5BHyyiqYKBb-62" value="Display each value in array3" style="shape=parallelogram;perimeter=parallelogramPerimeter;whiteSpace=wrap;html=1;fixedSize=1;" parent="mvioNwK95yMqdUQ73LqQ-36" vertex="1">
          <mxGeometry x="197.5" y="3580" width="199" height="60" as="geometry" />
        </mxCell>
        <mxCell id="RHvArnHLX5BHyyiqYKBb-64" value="&lt;font data-font-src=&quot;https://fonts.googleapis.com/css?family=Sarabun&quot; face=&quot;Sarabun&quot;&gt;End&lt;/font&gt;" style="ellipse;whiteSpace=wrap;html=1;" parent="mvioNwK95yMqdUQ73LqQ-36" vertex="1">
          <mxGeometry x="230.87" y="3690" width="130" height="30" as="geometry" />
        </mxCell>
        <mxCell id="RHvArnHLX5BHyyiqYKBb-12" value="No" style="text;html=1;align=center;verticalAlign=middle;resizable=0;points=[];autosize=1;strokeColor=none;fillColor=none;" parent="WIyWlLk6GJQsqaUBKTNV-1" vertex="1">
          <mxGeometry x="-320" y="508" width="40" height="30" as="geometry" />
        </mxCell>
      </root>
    </mxGraphModel>
  </diagram>
</mxfile>
